<svg width="36" height="36" viewBox="0 0 36 36" fill="none" xmlns="http://www.w3.org/2000/svg">
<path d="M17.9085 0.0842285C13.1116 0.0842285 12.5137 0.107392 10.6364 0.186808C8.7514 0.27946 7.47633 0.571755 6.35126 1.00854C5.17377 1.45308 4.10739 2.14906 3.22646 3.04799C2.32502 3.92686 1.62865 4.99383 1.18701 6.1728C0.750222 7.29786 0.457927 8.57293 0.365274 10.458C0.280343 12.3364 0.262695 12.9331 0.262695 17.73C0.262695 22.527 0.285858 23.1248 0.365274 25.0021C0.457927 26.8816 0.750222 28.1622 1.18701 29.2873C1.63154 30.4648 2.32753 31.5312 3.22646 32.4121C4.10533 33.3135 5.1723 34.0099 6.35126 34.4515C7.47633 34.8828 8.75691 35.1806 10.6364 35.2733C12.5148 35.3582 13.1116 35.3759 17.9085 35.3759C22.7055 35.3759 23.3033 35.3527 25.1806 35.2733C27.0601 35.1806 28.3407 34.8817 29.4658 34.4515C30.6433 34.007 31.7096 33.311 32.5906 32.4121C33.4932 31.5342 34.1897 30.4669 34.63 29.2873C35.0613 28.1622 35.3591 26.8816 35.4518 25.0021C35.5367 23.1237 35.5543 22.527 35.5543 17.73C35.5543 12.9331 35.5312 12.3353 35.4518 10.458C35.3591 8.57844 35.0602 7.29124 34.63 6.1728C34.1855 4.9953 33.4895 3.92892 32.5906 3.04799C31.7127 2.1454 30.6454 1.44884 29.4658 1.00854C28.3407 0.571755 27.0601 0.27946 25.1806 0.186808C23.3022 0.101877 22.7055 0.0842285 17.9085 0.0842285ZM17.9085 3.26087C22.6194 3.26087 23.182 3.28404 25.0438 3.36345C26.7612 3.44397 27.6966 3.73075 28.3175 3.97341C29.0853 4.2568 29.7801 4.70785 30.3515 5.2937C30.9363 5.86266 31.3857 6.55592 31.6663 7.32212C31.9089 7.94311 32.1957 8.87846 32.2762 10.5958C32.3556 12.4577 32.3788 13.0213 32.3788 17.7311C32.3788 22.441 32.3556 23.0046 32.2696 24.8665C32.1769 26.5838 31.8902 27.5192 31.6486 28.1402C31.3144 28.9685 30.9416 29.5476 30.3261 30.1741C29.7528 30.7563 29.0584 31.2052 28.2922 31.4889C27.6789 31.7315 26.7303 32.0183 25.0063 32.0988C23.1345 32.1783 22.583 32.2014 17.86 32.2014C13.1369 32.2014 12.5865 32.1783 10.7125 32.0922C8.99516 31.9996 8.04768 31.7128 7.42669 31.4712C6.58841 31.137 6.01375 30.7642 5.39827 30.1487C4.77728 29.5278 4.38241 28.9365 4.07798 28.1148C3.83091 27.5015 3.54854 26.553 3.45699 24.829C3.39412 22.9792 3.36434 22.4057 3.36434 17.7047C3.36434 13.0059 3.39412 12.4312 3.45699 10.5583C3.54854 8.83434 3.83091 7.88796 4.07798 7.27249C4.38241 6.43311 4.77838 5.85954 5.39827 5.23855C6.01264 4.62418 6.58841 4.2271 7.42669 3.91606C8.04768 3.6745 8.972 3.38772 10.696 3.30168C12.5678 3.2344 13.1193 3.21013 17.8357 3.21013L17.9085 3.26087ZM17.9085 8.6733C16.7188 8.67287 15.5406 8.90689 14.4413 9.36199C13.342 9.81709 12.3432 10.4843 11.5019 11.3256C10.6606 12.1669 9.99335 13.1657 9.53825 14.265C9.08315 15.3643 8.84913 16.5425 8.84956 17.7323C8.84913 18.922 9.08315 20.1002 9.53825 21.1995C9.99335 22.2988 10.6606 23.2976 11.5019 24.1389C12.3432 24.9802 13.342 25.6474 14.4413 26.1025C15.5406 26.5576 16.7188 26.7916 17.9085 26.7912C19.0983 26.7916 20.2765 26.5576 21.3757 26.1025C22.475 25.6474 23.4738 24.9802 24.3151 24.1389C25.1564 23.2976 25.8237 22.2988 26.2788 21.1995C26.7339 20.1002 26.9679 18.922 26.9675 17.7323C26.9679 16.5425 26.7339 15.3643 26.2788 14.265C25.8237 13.1657 25.1564 12.1669 24.3151 11.3256C23.4738 10.4843 22.475 9.81709 21.3757 9.36199C20.2765 8.90689 19.0983 8.67287 17.9085 8.6733ZM17.9085 23.6146C14.6569 23.6146 12.0262 20.9839 12.0262 17.7323C12.0262 14.4806 14.6569 11.8499 17.9085 11.8499C21.1602 11.8499 23.7908 14.4806 23.7908 17.7323C23.7908 20.9839 21.1602 23.6146 17.9085 23.6146ZM29.4503 8.31152C29.4497 8.87368 29.226 9.41261 28.8283 9.80991C28.4306 10.2072 27.8914 10.4304 27.3293 10.4304C27.0513 10.4304 26.776 10.3756 26.5192 10.2693C26.2624 10.1629 26.0291 10.007 25.8325 9.81043C25.636 9.61388 25.4801 9.38054 25.3737 9.12373C25.2673 8.86693 25.2126 8.59169 25.2126 8.31372C25.2126 8.03576 25.2673 7.76052 25.3737 7.50371C25.4801 7.24691 25.636 7.01357 25.8325 6.81702C26.0291 6.62047 26.2624 6.46456 26.5192 6.35818C26.776 6.25181 27.0513 6.19706 27.3293 6.19706C28.4951 6.19706 29.4503 7.14564 29.4503 8.31152Z" fill="white" fill-opacity="0.9"/>
</svg>
